# xmcd CD database file
#
# Track frame offsets:
#	187
#	15795
#	32122
#	50582
#
# Disc length: 877 seconds
#
# Revision: 0
# Processed by: cddbd v1.5.2PL0 Copyright (c) Steve Scherf et al.
# Submitted via: CDex 1.70beta2
#
DISCID=24036b04
DTITLE=Lalah Hathaway - NIGHT AND DAY
DYEAR=1900
DGENRE=Jazz
TTITLE0=NIGHT AND DAY
TTITLE1=SOMETHIN'
TTITLE2=BABY DON'T CRY
TTITLE3=NIGHT AND DAY(ACCAPELA VERSION)
EXTD=
EXTT0=
EXTT1=
EXTT2=
EXTT3=
PLAYORDER=
